<?xml version="1.0" standalone="no"?>
<svg version="1.0" xmlns="http://www.w3.org/2000/svg"
 width="512.000000pt" height="512.000000pt" viewBox="0 0 512.000000 512.000000"
 preserveAspectRatio="xMidYMid meet">

<g transform="translate(0.000000,512.000000) scale(0.100000,-0.100000)"
fill="#000000" stroke="none">
<path d="M2524 5111 c-12 -5 -31 -22 -43 -37 -21 -27 -22 -32 -19 -331 l3
-303 27 -27 c25 -25 35 -27 145 -34 152 -10 245 -24 366 -54 600 -152 1085
-597 1277 -1175 59 -176 60 -180 90 -195 40 -21 83 -19 113 5 40 32 43 75 12
179 -139 473 -459 887 -887 1148 -247 150 -551 255 -803 278 -38 3 -87 8 -107
11 l-38 6 0 169 0 169 63 -6 c590 -53 1107 -290 1507 -694 479 -483 733 -1162
681 -1820 -47 -587 -280 -1098 -686 -1505 -297 -296 -674 -513 -1068 -614
-465 -119 -964 -98 -1402 61 -468 170 -881 497 -1160 918 -196 295 -316 610
-372 970 -25 161 -24 500 1 665 73 485 285 927 609 1272 90 96 106 134 72 179
-8 10 -15 22 -15 27 0 4 97 7 215 7 l215 0 0 -217 0 -217 -27 26 c-56 51 -99
61 -144 30 -65 -43 -232 -251 -316 -392 -201 -337 -293 -670 -293 -1058 1
-528 198 -1011 570 -1396 384 -397 893 -615 1441 -616 553 0 1042 202 1435
594 252 252 406 509 510 849 26 85 26 90 10 123 -18 40 -72 68 -110 58 -42
-10 -64 -46 -106 -169 -47 -136 -116 -287 -180 -390 -170 -276 -429 -516 -720
-664 -402 -206 -869 -255 -1306 -137 -441 119 -829 409 -1073 804 -279 450
-346 1015 -180 1522 63 192 195 433 318 580 25 30 47 57 48 59 2 3 36 -27 76
-66 40 -38 83 -78 97 -87 47 -31 107 -14 135 38 14 28 16 76 13 449 l-3 419
-33 29 -32 29 -416 0 c-453 0 -457 -1 -483 -57 -24 -53 -2 -102 87 -187 l40
-38 -83 -100 c-315 -376 -510 -826 -577 -1328 -16 -122 -16 -497 0 -620 82
-623 356 -1150 820 -1581 256 -239 575 -425 922 -539 274 -91 491 -124 800
-124 228 0 329 9 530 50 689 141 1304 583 1674 1204 175 292 291 632 338 990
16 123 16 497 0 620 -47 358 -163 698 -338 990 -449 753 -1229 1220 -2094
1255 -69 3 -135 1 -146 -4z"/>
<path d="M1790 3851 c-76 -23 -148 -89 -171 -157 -20 -59 -18 -219 4 -276 21
-54 87 -120 140 -139 33 -12 37 -17 42 -58 10 -73 53 -221 86 -291 47 -102
131 -219 212 -297 l75 -73 -75 -72 c-81 -79 -165 -196 -212 -298 -33 -70 -76
-218 -86 -291 -5 -41 -9 -46 -42 -58 -53 -19 -119 -85 -140 -139 -22 -57 -24
-217 -4 -276 17 -49 73 -111 125 -139 l41 -22 775 0 775 0 41 22 c52 28 108
90 125 139 20 59 18 219 -4 276 -21 54 -87 120 -140 139 -33 12 -37 17 -42 58
-10 73 -53 221 -86 291 -47 102 -131 219 -212 298 l-75 72 75 73 c81 78 165
195 212 297 33 70 76 218 86 291 5 41 9 46 42 58 53 19 119 85 140 139 22 57
24 217 4 276 -17 49 -73 111 -125 139 -38 20 -58 22 -241 25 -187 3 -202 1
-233 -18 -21 -13 -35 -31 -39 -50 l-5 -30 -99 0 c-96 0 -99 1 -105 24 -3 13
-17 35 -30 47 -50 47 -142 20 -158 -47 -6 -22 -11 -24 -69 -24 -34 0 -79 -3
-99 -6 -34 -6 -38 -4 -38 15 0 33 -17 59 -50 76 -23 12 -67 15 -212 14 -101 0
-194 -4 -208 -8z m400 -291 l0 -100 -179 0 c-175 0 -180 1 -195 22 -10 14 -16
44 -16 78 0 34 6 64 16 78 15 21 20 22 195 22 l179 0 0 -100z m919 -347 c-42
-226 -176 -425 -371 -547 -103 -66 -103 -146 0 -212 195 -122 329 -321 371
-546 l8 -48 -558 0 -559 0 6 28 c24 108 39 156 70 221 67 142 164 253 296 339
31 20 63 48 72 63 34 58 12 107 -72 161 -132 86 -229 197 -296 339 -31 65 -46
113 -70 222 l-6 27 559 0 558 0 -8 -47z m-919 -1653 l0 -100 -179 0 c-175 0
-180 1 -195 22 -10 14 -16 44 -16 78 0 34 6 64 16 78 15 21 20 22 195 22 l179
0 0 -100z"/>
<path d="M4450 2653 c-56 -21 -83 -89 -55 -143 32 -63 115 -72 160 -18 65 77
-12 195 -105 161z"/>
</g>
</svg>
